<svg id="uuid-0ed8f6f4-1c34-44db-b809-bae2782b0cab" data-name="Слой 1" xmlns="http://www.w3.org/2000/svg" viewBox="0 0 79.24 73.39" height="100px" width="100px" transform="rotate(0) scale(1, 1)">
  <defs>
    <style>.uuid-61eb7d39-f31c-43f7-ac1a-1723cc3301ab { fill: #18603e; stroke-width: 0px; }</style>
  </defs>
  <path class="uuid-61eb7d39-f31c-43f7-ac1a-1723cc3301ab" d="m76.55,62.6c.8,1.13,1.62,2.29,2.69,3.8-5.43,4.86-11.43,8.39-18.49,6.44-9.48-2.62-9.09-11.96-11.58-20.07-1.82,2.86-3.27,5.36-4.92,7.7-4.83,6.84-10.52,12.38-19.61,12.78-8.66.38-14.99-3.32-19.28-10.73C-3.45,47.28-1.08,21.35,10.16,9.15,17.59,1.08,26.82-1.3,37.31.64c6.94,1.28,11.22,6.03,14.34,11.99,1.06,2.03,1.98,4.13,3.61,7.55,1.55-5.15,3.1-9.04,3.83-13.07.87-4.8,3.18-6.76,8.02-5.98,1.75.28,3.58.05,6.51.05-.86,2.59-1.31,4.54-2.14,6.32-2.17,4.65-4.13,9.45-6.85,13.77-7.08,11.27-5.61,23.01-2.61,34.92,2.46,9.77,5.32,11.06,14.51,6.42Zm-27.91-28.17c-1.44-5.74-2.72-12.06-4.64-18.17-1.79-5.7-5.41-9.88-11.97-10.23-6.43-.34-10.77,3-13.35,8.48-6.37,13.51-6.51,27.57-1.89,41.47,3.04,9.16,12.77,11.29,19.98,4.77,7.5-6.79,9.8-16.15,11.87-26.31Z"/>
</svg>